[h264 @ 0x556001bd1980] Reinit context to 1280x688, pix_fmt: yuv420p
Input #0, mov,mp4,m4a,3gp,3g2,mj2, from '/var/www/html/project/media/video/original/IMG_1850.MOV':
  Metadata:
    major_brand     : qt  
    minor_version   : 0
    compatible_brands: qt  
    creation_time   : 2024-01-04T22:29:58.000000Z
  Duration: 00:00:40.70, start: 0.000000, bitrate: 3066 kb/s
    Stream #0:0(und): Audio: aac (LC) (mp4a / 0x6134706D), 44100 Hz, stereo, fltp, 62 kb/s (default)
    Metadata:
      creation_time   : 2024-01-04T22:29:58.000000Z
      handler_name    : Core Media Audio
    Stream #0:1(und): Video: h264 (High), 1 reference frame (avc1 / 0x31637661), yuv420p(tv, bt709, progressive, left), 1280x688, 2996 kb/s, SAR 1:1 DAR 80:43, 29.98 fps, 30 tbr, 600 tbn, 1200 tbc (default)
    Metadata:
      creation_time   : 2024-01-04T22:29:58.000000Z
      handler_name    : Core Media Video
      encoder         : 'avc1'
[h264 @ 0x556001c2f4c0] Reinit context to 1280x720, pix_fmt: yuv420p
Input #1, mov,mp4,m4a,3gp,3g2,mj2, from '/var/www/html/project/static/images/templates/Codino.mp4':
  Metadata:
    major_brand     : mp42
    minor_version   : 1
    compatible_brands: isommp41mp42
    creation_time   : 2021-07-11T07:02:58.000000Z
  Duration: 00:00:02.00, start: 0.000000, bitrate: 1007 kb/s
    Stream #1:0(ita): Audio: aac (LC) (mp4a / 0x6134706D), 44100 Hz, stereo, fltp, 102 kb/s (default)
    Metadata:
      creation_time   : 2021-07-11T07:02:58.000000Z
      handler_name    : Core Media Audio
    Stream #1:1(und): Video: h264 (High), 1 reference frame (avc1 / 0x31637661), yuv420p(tv, bt709, progressive, left), 1280x720 [SAR 1:1 DAR 16:9], 813 kb/s, 25 fps, 25 tbr, 25k tbn, 50k tbc (default)
    Metadata:
      creation_time   : 2021-07-11T07:02:58.000000Z
      handler_name    : Core Media Video
[Parsed_scale_0 @ 0x556001c2e840] w:1280 h:720 flags:'bilinear' interl:0
[Parsed_scale_2 @ 0x556001bfe680] w:1280 h:720 flags:'bilinear' interl:0
Stream mapping:
  Stream #0:0 (aac) -> concat:in0:a0
  Stream #0:1 (h264) -> scale
  Stream #1:0 (aac) -> concat:in1:a0
  Stream #1:1 (h264) -> scale
  concat:out:v0 -> Stream #0:0 (libx264)
  concat:out:a0 -> Stream #0:1 (aac)
Press [q] to stop, [?] for help
[h264 @ 0x556001bd5a80] Reinit context to 1280x688, pix_fmt: yuv420p
[h264 @ 0x556002057280] Reinit context to 1280x720, pix_fmt: yuv420p
[Parsed_scale_0 @ 0x556002f00e40] w:1280 h:720 flags:'bilinear' interl:0
[Parsed_scale_2 @ 0x556002f043c0] w:1280 h:720 flags:'bilinear' interl:0
[graph 0 input from stream 0:1 @ 0x556002f074c0] w:1280 h:688 pixfmt:yuv420p tb:1/600 fr:30/1 sar:1/1 sws_param:flags=2
[graph 0 input from stream 1:1 @ 0x556002f08500] w:1280 h:720 pixfmt:yuv420p tb:1/25000 fr:25/1 sar:1/1 sws_param:flags=2
[graph_0_in_0_0 @ 0x556002f094c0] tb:1/44100 samplefmt:fltp samplerate:44100 chlayout:0x3
[graph_0_in_1_0 @ 0x556002f0a600] tb:1/44100 samplefmt:fltp samplerate:44100 chlayout:0x3
[Parsed_scale_0 @ 0x556002f00e40] w:1280 h:688 fmt:yuv420p sar:1/1 -> w:1280 h:720 fmt:yuv420p sar:45/43 flags:0x2
[Parsed_setsar_1 @ 0x556002efc4c0] w:1280 h:720 sar:45/43 dar:80/43 -> sar:1/1 dar:16/9
[Parsed_scale_2 @ 0x556002f043c0] w:1280 h:720 fmt:yuv420p sar:1/1 -> w:1280 h:720 fmt:yuv420p sar:1/1 flags:0x2
[Parsed_setsar_3 @ 0x556002f04780] w:1280 h:720 sar:1/1 dar:16/9 -> sar:1/1 dar:16/9
[libx264 @ 0x556001cfd380] using SAR=1/1
[libx264 @ 0x556001cfd380] using cpu capabilities: MMX2 SSE2Fast SSSE3 SSE4.2 AVX FMA3 BMI2 AVX2
[libx264 @ 0x556001cfd380] profile High, level 3.1
[libx264 @ 0x556001cfd380] 264 - core 155 r2917 0a84d98 - H.264/MPEG-4 AVC codec - Copyleft 2003-2018 - http://www.videolan.org/x264.html - options: cabac=1 ref=1 deblock=1:0:0 analyse=0x3:0x113 me=hex subme=2 psy=1 psy_rd=1.00:0.00 mixed_ref=0 me_range=16 chroma_me=1 trellis=0 8x8dct=1 cqm=0 deadzone=21,11 fast_pskip=1 chroma_qp_offset=0 threads=22 lookahead_threads=5 sliced_threads=0 nr=0 decimate=1 interlaced=0 bluray_compat=0 constrained_intra=0 bframes=3 b_pyramid=2 b_adapt=1 b_bias=0 direct=1 weightb=1 open_gop=0 weightp=1 keyint=250 keyint_min=25 scenecut=40 intra_refresh=0 rc_lookahead=10 rc=crf mbtree=1 crf=18.0 qcomp=0.60 qpmin=0 qpmax=69 qpstep=4 ip_ratio=1.40 aq=1:1.00
Output #0, mp4, to '/var/www/html/project/media/video/watermarks/IMG_1850.mp4':
  Metadata:
    major_brand     : qt  
    minor_version   : 0
    compatible_brands: qt  
    encoder         : Lavf58.29.100
    Stream #0:0: Video: h264 (libx264), 1 reference frame (avc1 / 0x31637661), yuv420p(progressive), 1280x720 [SAR 1:1 DAR 16:9], q=-1--1, 30 fps, 15360 tbn, 30 tbc (default)
    Metadata:
      encoder         : Lavc58.54.100 libx264
    Side data:
      cpb: bitrate max/min/avg: 0/0/0 buffer size: 0 vbv_delay: -1
    Stream #0:1: Audio: aac (LC) (mp4a / 0x6134706D), 44100 Hz, stereo, fltp, delay 1024, 128 kb/s (default)
    Metadata:
      encoder         : Lavc58.54.100 aac
[Parsed_concat_4 @ 0x556002f05500] EOF on in0:a0, 1 streams left in segment.
[Parsed_concat_4 @ 0x556002f05500] EOF on in0:v0, 0 streams left in segment.
[Parsed_concat_4 @ 0x556002f05500] Segment finished at pts=40700000
[Parsed_concat_4 @ 0x556002f05500] EOF on in1:a0, 1 streams left in segment.
[Parsed_concat_4 @ 0x556002f05500] EOF on in1:v0, 0 streams left in segment.
[Parsed_concat_4 @ 0x556002f05500] Segment finished at pts=42718685
No more output streams to write to, finishing.
frame= 1271 fps= 90 q=-1.0 Lsize=   20938kB time=00:00:42.72 bitrate=4014.7kbits/s speed=3.04x    
[AVIOContext @ 0x556001bce180] Statistics: 0 seeks, 28 writeouts
video:20231kB audio:661kB subtitle:0kB other streams:0kB global headers:0kB muxing overhead: 0.220875%
Input file #0 (/var/www/html/project/media/video/original/IMG_1850.MOV):
  Input stream #0:0 (audio): 1754 packets read (319354 bytes); 1752 frames decoded (1793984 samples); 
  Input stream #0:1 (video): 1221 packets read (15257029 bytes); 1221 frames decoded; 
  Total: 2975 packets (15576383 bytes) demuxed
Input file #1 (/var/www/html/project/static/images/templates/Codino.mp4):
  Input stream #1:0 (audio): 89 packets read (26579 bytes); 87 frames decoded (89024 samples); 
  Input stream #1:1 (video): 50 packets read (203365 bytes); 50 frames decoded; 
  Total: 139 packets (229944 bytes) demuxed
Output file #0 (/var/www/html/project/media/video/watermarks/IMG_1850.mp4):
  Output stream #0:0 (video): 1271 frames encoded; 1271 packets muxed (20716319 bytes); 
  Output stream #0:1 (audio): 1840 frames encoded (1883894 samples); 1841 packets muxed (677217 bytes); 
  Total: 3112 packets (21393536 bytes) muxed
[AVIOContext @ 0x556001c39e00] Statistics: 2 seeks, 85 writeouts
[libx264 @ 0x556001cfd380] frame I:7     Avg QP:14.54  size:132862
[libx264 @ 0x556001cfd380] frame P:405   Avg QP:19.01  size: 35950
[libx264 @ 0x556001cfd380] frame B:859   Avg QP:23.21  size:  6084
[libx264 @ 0x556001cfd380] consecutive B-frames:  2.4% 19.8%  7.6% 70.2%
[libx264 @ 0x556001cfd380] mb I  I16..4: 20.8%  4.6% 74.6%
[libx264 @ 0x556001cfd380] mb P  I16..4:  5.4%  4.2%  3.3%  P16..4: 36.8% 20.0% 18.9%  0.0%  0.0%    skip:11.4%
[libx264 @ 0x556001cfd380] mb B  I16..4:  1.0%  0.7%  0.2%  B16..8: 21.2%  8.6%  1.2%  direct:16.0%  skip:51.1%  L0:27.5% L1:50.1% BI:22.4%
[libx264 @ 0x556001cfd380] 8x8 transform intra:31.1% inter:41.1%
[libx264 @ 0x556001cfd380] coded y,uvDC,uvAC intra: 44.5% 44.8% 15.2% inter: 22.5% 22.2% 0.5%
[libx264 @ 0x556001cfd380] i16 v,h,dc,p: 66% 21% 10%  3%
[libx264 @ 0x556001cfd380] i8 v,h,dc,ddl,ddr,vr,hd,vl,hu: 27% 29% 24%  3%  3%  4%  4%  3%  4%
[libx264 @ 0x556001cfd380] i4 v,h,dc,ddl,ddr,vr,hd,vl,hu: 24% 20% 10%  6%  8%  9%  8%  8%  7%
[libx264 @ 0x556001cfd380] i8c dc,h,v,p: 57% 18% 21%  4%
[libx264 @ 0x556001cfd380] Weighted P-Frames: Y:8.4% UV:2.7%
[libx264 @ 0x556001cfd380] kb/s:3881.15
[aac @ 0x556001c36e40] Qavg: 1242.569
[AVIOContext @ 0x556001bd7080] Statistics: 81731446 bytes read, 2412 seeks
[AVIOContext @ 0x556001bd6300] Statistics: 1530915 bytes read, 42 seeks
